<?xml version="1.0" encoding="utf-8" standalone="no"?>
<!DOCTYPE svg PUBLIC "-//W3C//DTD SVG 1.1//EN"
  "http://www.w3.org/Graphics/SVG/1.1/DTD/svg11.dtd">
<svg xmlns:xlink="http://www.w3.org/1999/xlink" width="293.209482pt" height="315.239719pt" viewBox="0 0 293.209482 315.239719" xmlns="http://www.w3.org/2000/svg" version="1.1">
 <metadata>
  <rdf:RDF xmlns:dc="http://purl.org/dc/elements/1.1/" xmlns:cc="http://creativecommons.org/ns#" xmlns:rdf="http://www.w3.org/1999/02/22-rdf-syntax-ns#">
   <cc:Work>
    <dc:type rdf:resource="http://purl.org/dc/dcmitype/StillImage"/>
    <dc:date>2026-05-10T21:51:22.390809</dc:date>
    <dc:format>image/svg+xml</dc:format>
    <dc:creator>
     <cc:Agent>
      <dc:title>Matplotlib v3.10.8, https://matplotlib.org/</dc:title>
     </cc:Agent>
    </dc:creator>
   </cc:Work>
  </rdf:RDF>
 </metadata>
 <defs>
  <style type="text/css">*{stroke-linejoin: round; stroke-linecap: butt}</style>
 </defs>
 <g id="figure_1">
  <g id="patch_1">
   <path d="M 0 315.239719 
L 293.209482 315.239719 
L 293.209482 0 
L 0 0 
z
" style="fill: #ffffff"/>
  </g>
  <g id="axes_1">
   <g id="patch_2">
    <path d="M 33.208631 257.263832 
L 25.799226 252.98601 
L 18.389821 257.263832 
L 18.389821 265.819476 
L 25.799226 270.097298 
L 33.208631 265.819476 
z
" clip-path="url(#p8153c52e14)" style="fill: #f4f4f4; stroke: #dfdfdf; stroke-width: 0.45; stroke-linejoin: miter"/>
   </g>
   <g id="patch_3">
    <path d="M 49.316033 229.364994 
L 41.906628 225.087172 
L 34.497223 229.364994 
L 34.497223 237.920637 
L 41.906628 242.198459 
L 49.316033 237.920637 
z
" clip-path="url(#p8153c52e14)" style="fill: #f4f4f4; stroke: #dfdfdf; stroke-width: 0.45; stroke-linejoin: miter"/>
   </g>
   <g id="patch_4">
    <path d="M 65.423435 201.466155 
L 58.01403 197.188333 
L 50.604625 201.466155 
L 50.604625 210.021799 
L 58.01403 214.299621 
L 65.423435 210.021799 
z
" clip-path="url(#p8153c52e14)" style="fill: #f4f4f4; stroke: #dfdfdf; stroke-width: 0.45; stroke-linejoin: miter"/>
   </g>
   <g id="patch_5">
    <path d="M 81.530837 173.567316 
L 74.121432 169.289494 
L 66.712027 173.567316 
L 66.712027 182.12296 
L 74.121432 186.400782 
L 81.530837 182.12296 
z
" clip-path="url(#p8153c52e14)" style="fill: #f4f4f4; stroke: #dfdfdf; stroke-width: 0.45; stroke-linejoin: miter"/>
   </g>
   <g id="patch_6">
    <path d="M 97.638239 145.668477 
L 90.228834 141.390656 
L 82.819429 145.668477 
L 82.819429 154.224121 
L 90.228834 158.501943 
L 97.638239 154.224121 
z
" clip-path="url(#p8153c52e14)" style="fill: #f4f4f4; stroke: #dfdfdf; stroke-width: 0.45; stroke-linejoin: miter"/>
   </g>
   <g id="patch_7">
    <path d="M 113.745641 117.769639 
L 106.336236 113.491817 
L 98.926831 117.769639 
L 98.926831 126.325283 
L 106.336236 130.603105 
L 113.745641 126.325283 
z
" clip-path="url(#p8153c52e14)" style="fill: #f4f4f4; stroke: #dfdfdf; stroke-width: 0.45; stroke-linejoin: miter"/>
   </g>
   <g id="patch_8">
    <path d="M 129.853043 89.8708 
L 122.443638 85.592978 
L 115.034233 89.8708 
L 115.034233 98.426444 
L 122.443638 102.704266 
L 129.853043 98.426444 
z
" clip-path="url(#p8153c52e14)" style="fill: #f4f4f4; stroke: #dfdfdf; stroke-width: 0.45; stroke-linejoin: miter"/>
   </g>
   <g id="patch_9">
    <path d="M 145.960445 61.971961 
L 138.55104 57.694139 
L 131.141635 61.971961 
L 131.141635 70.527605 
L 138.55104 74.805427 
L 145.960445 70.527605 
z
" clip-path="url(#p8153c52e14)" style="fill: #f4f4f4; stroke: #dfdfdf; stroke-width: 0.45; stroke-linejoin: miter"/>
   </g>
   <g id="patch_10">
    <path d="M 162.067847 34.073123 
L 154.658442 29.795301 
L 147.249037 34.073123 
L 147.249037 42.628766 
L 154.658442 46.906588 
L 162.067847 42.628766 
z
" clip-path="url(#p8153c52e14)" style="fill: #f4f4f4; stroke: #dfdfdf; stroke-width: 0.45; stroke-linejoin: miter"/>
   </g>
   <g id="patch_11">
    <path d="M 49.316033 285.162671 
L 41.906628 280.884849 
L 34.497223 285.162671 
L 34.497223 293.718315 
L 41.906628 297.996137 
L 49.316033 293.718315 
z
" clip-path="url(#p8153c52e14)" style="fill: #f4f4f4; stroke: #dfdfdf; stroke-width: 0.45; stroke-linejoin: miter"/>
   </g>
   <g id="patch_12">
    <path d="M 65.423435 257.263832 
L 58.01403 252.98601 
L 50.604625 257.263832 
L 50.604625 265.819476 
L 58.01403 270.097298 
L 65.423435 265.819476 
z
" clip-path="url(#p8153c52e14)" style="fill: #f4f4f4; stroke: #dfdfdf; stroke-width: 0.45; stroke-linejoin: miter"/>
   </g>
   <g id="patch_13">
    <path d="M 81.530837 229.364994 
L 74.121432 225.087172 
L 66.712027 229.364994 
L 66.712027 237.920637 
L 74.121432 242.198459 
L 81.530837 237.920637 
z
" clip-path="url(#p8153c52e14)" style="fill: #f4f4f4; stroke: #dfdfdf; stroke-width: 0.45; stroke-linejoin: miter"/>
   </g>
   <g id="patch_14">
    <path d="M 97.638239 201.466155 
L 90.228834 197.188333 
L 82.819429 201.466155 
L 82.819429 210.021799 
L 90.228834 214.299621 
L 97.638239 210.021799 
z
" clip-path="url(#p8153c52e14)" style="fill: #f4f4f4; stroke: #dfdfdf; stroke-width: 0.45; stroke-linejoin: miter"/>
   </g>
   <g id="patch_15">
    <path d="M 113.745641 173.567316 
L 106.336236 169.289494 
L 98.926831 173.567316 
L 98.926831 182.12296 
L 106.336236 186.400782 
L 113.745641 182.12296 
z
" clip-path="url(#p8153c52e14)" style="fill: #f4f4f4; stroke: #dfdfdf; stroke-width: 0.45; stroke-linejoin: miter"/>
   </g>
   <g id="patch_16">
    <path d="M 129.853043 145.668477 
L 122.443638 141.390656 
L 115.034233 145.668477 
L 115.034233 154.224121 
L 122.443638 158.501943 
L 129.853043 154.224121 
z
" clip-path="url(#p8153c52e14)" style="fill: #f4f4f4; stroke: #dfdfdf; stroke-width: 0.45; stroke-linejoin: miter"/>
   </g>
   <g id="patch_17">
    <path d="M 145.960445 117.769639 
L 138.55104 113.491817 
L 131.141635 117.769639 
L 131.141635 126.325283 
L 138.55104 130.603105 
L 145.960445 126.325283 
z
" clip-path="url(#p8153c52e14)" style="fill: #f4f4f4; stroke: #dfdfdf; stroke-width: 0.45; stroke-linejoin: miter"/>
   </g>
   <g id="patch_18">
    <path d="M 162.067847 89.8708 
L 154.658442 85.592978 
L 147.249037 89.8708 
L 147.249037 98.426444 
L 154.658442 102.704266 
L 162.067847 98.426444 
z
" clip-path="url(#p8153c52e14)" style="fill: #f4f4f4; stroke: #dfdfdf; stroke-width: 0.45; stroke-linejoin: miter"/>
   </g>
   <g id="patch_19">
    <path d="M 178.175249 61.971961 
L 170.765844 57.694139 
L 163.356439 61.971961 
L 163.356439 70.527605 
L 170.765844 74.805427 
L 178.175249 70.527605 
z
" clip-path="url(#p8153c52e14)" style="fill: #f4f4f4; stroke: #dfdfdf; stroke-width: 0.45; stroke-linejoin: miter"/>
   </g>
   <g id="patch_20">
    <path d="M 194.282651 34.073123 
L 186.873246 29.795301 
L 179.463841 34.073123 
L 179.463841 42.628766 
L 186.873246 46.906588 
L 194.282651 42.628766 
z
" clip-path="url(#p8153c52e14)" style="fill: #f4f4f4; stroke: #dfdfdf; stroke-width: 0.45; stroke-linejoin: miter"/>
   </g>
   <g id="patch_21">
    <path d="M 81.530837 285.162671 
L 74.121432 280.884849 
L 66.712027 285.162671 
L 66.712027 293.718315 
L 74.121432 297.996137 
L 81.530837 293.718315 
z
" clip-path="url(#p8153c52e14)" style="fill: #f4f4f4; stroke: #dfdfdf; stroke-width: 0.45; stroke-linejoin: miter"/>
   </g>
   <g id="patch_22">
    <path d="M 97.638239 257.263832 
L 90.228834 252.98601 
L 82.819429 257.263832 
L 82.819429 265.819476 
L 90.228834 270.097298 
L 97.638239 265.819476 
z
" clip-path="url(#p8153c52e14)" style="fill: #f4f4f4; stroke: #dfdfdf; stroke-width: 0.45; stroke-linejoin: miter"/>
   </g>
   <g id="patch_23">
    <path d="M 113.745641 229.364994 
L 106.336236 225.087172 
L 98.926831 229.364994 
L 98.926831 237.920637 
L 106.336236 242.198459 
L 113.745641 237.920637 
z
" clip-path="url(#p8153c52e14)" style="fill: #f4f4f4; stroke: #dfdfdf; stroke-width: 0.45; stroke-linejoin: miter"/>
   </g>
   <g id="patch_24">
    <path d="M 129.853043 201.466155 
L 122.443638 197.188333 
L 115.034233 201.466155 
L 115.034233 210.021799 
L 122.443638 214.299621 
L 129.853043 210.021799 
z
" clip-path="url(#p8153c52e14)" style="fill: #f4f4f4; stroke: #dfdfdf; stroke-width: 0.45; stroke-linejoin: miter"/>
   </g>
   <g id="patch_25">
    <path d="M 145.960445 173.567316 
L 138.55104 169.289494 
L 131.141635 173.567316 
L 131.141635 182.12296 
L 138.55104 186.400782 
L 145.960445 182.12296 
z
" clip-path="url(#p8153c52e14)" style="fill: #f4f4f4; stroke: #dfdfdf; stroke-width: 0.45; stroke-linejoin: miter"/>
   </g>
   <g id="patch_26">
    <path d="M 162.067847 145.668477 
L 154.658442 141.390656 
L 147.249037 145.668477 
L 147.249037 154.224121 
L 154.658442 158.501943 
L 162.067847 154.224121 
z
" clip-path="url(#p8153c52e14)" style="fill: #f4f4f4; stroke: #dfdfdf; stroke-width: 0.45; stroke-linejoin: miter"/>
   </g>
   <g id="patch_27">
    <path d="M 178.175249 117.769639 
L 170.765844 113.491817 
L 163.356439 117.769639 
L 163.356439 126.325283 
L 170.765844 130.603105 
L 178.175249 126.325283 
z
" clip-path="url(#p8153c52e14)" style="fill: #f4f4f4; stroke: #dfdfdf; stroke-width: 0.45; stroke-linejoin: miter"/>
   </g>
   <g id="patch_28">
    <path d="M 194.282651 89.8708 
L 186.873246 85.592978 
L 179.463841 89.8708 
L 179.463841 98.426444 
L 186.873246 102.704266 
L 194.282651 98.426444 
z
" clip-path="url(#p8153c52e14)" style="fill: #f4f4f4; stroke: #dfdfdf; stroke-width: 0.45; stroke-linejoin: miter"/>
   </g>
   <g id="patch_29">
    <path d="M 210.390053 61.971961 
L 202.980648 57.694139 
L 195.571243 61.971961 
L 195.571243 70.527605 
L 202.980648 74.805427 
L 210.390053 70.527605 
z
" clip-path="url(#p8153c52e14)" style="fill: #f4f4f4; stroke: #dfdfdf; stroke-width: 0.45; stroke-linejoin: miter"/>
   </g>
   <g id="patch_30">
    <path d="M 113.745641 285.162671 
L 106.336236 280.884849 
L 98.926831 285.162671 
L 98.926831 293.718315 
L 106.336236 297.996137 
L 113.745641 293.718315 
z
" clip-path="url(#p8153c52e14)" style="fill: #f4f4f4; stroke: #dfdfdf; stroke-width: 0.45; stroke-linejoin: miter"/>
   </g>
   <g id="patch_31">
    <path d="M 129.853043 257.263832 
L 122.443638 252.98601 
L 115.034233 257.263832 
L 115.034233 265.819476 
L 122.443638 270.097298 
L 129.853043 265.819476 
z
" clip-path="url(#p8153c52e14)" style="fill: #f4f4f4; stroke: #dfdfdf; stroke-width: 0.45; stroke-linejoin: miter"/>
   </g>
   <g id="patch_32">
    <path d="M 145.960445 229.364994 
L 138.55104 225.087172 
L 131.141635 229.364994 
L 131.141635 237.920637 
L 138.55104 242.198459 
L 145.960445 237.920637 
z
" clip-path="url(#p8153c52e14)" style="fill: #f4f4f4; stroke: #dfdfdf; stroke-width: 0.45; stroke-linejoin: miter"/>
   </g>
   <g id="patch_33">
    <path d="M 162.067847 201.466155 
L 154.658442 197.188333 
L 147.249037 201.466155 
L 147.249037 210.021799 
L 154.658442 214.299621 
L 162.067847 210.021799 
z
" clip-path="url(#p8153c52e14)" style="fill: #f4f4f4; stroke: #dfdfdf; stroke-width: 0.45; stroke-linejoin: miter"/>
   </g>
   <g id="patch_34">
    <path d="M 178.175249 173.567316 
L 170.765844 169.289494 
L 163.356439 173.567316 
L 163.356439 182.12296 
L 170.765844 186.400782 
L 178.175249 182.12296 
z
" clip-path="url(#p8153c52e14)" style="fill: #f4f4f4; stroke: #dfdfdf; stroke-width: 0.45; stroke-linejoin: miter"/>
   </g>
   <g id="patch_35">
    <path d="M 194.282651 145.668477 
L 186.873246 141.390656 
L 179.463841 145.668477 
L 179.463841 154.224121 
L 186.873246 158.501943 
L 194.282651 154.224121 
z
" clip-path="url(#p8153c52e14)" style="fill: #f4f4f4; stroke: #dfdfdf; stroke-width: 0.45; stroke-linejoin: miter"/>
   </g>
   <g id="patch_36">
    <path d="M 210.390053 117.769639 
L 202.980648 113.491817 
L 195.571243 117.769639 
L 195.571243 126.325283 
L 202.980648 130.603105 
L 210.390053 126.325283 
z
" clip-path="url(#p8153c52e14)" style="fill: #f4f4f4; stroke: #dfdfdf; stroke-width: 0.45; stroke-linejoin: miter"/>
   </g>
   <g id="patch_37">
    <path d="M 226.497455 89.8708 
L 219.08805 85.592978 
L 211.678645 89.8708 
L 211.678645 98.426444 
L 219.08805 102.704266 
L 226.497455 98.426444 
z
" clip-path="url(#p8153c52e14)" style="fill: #f4f4f4; stroke: #dfdfdf; stroke-width: 0.45; stroke-linejoin: miter"/>
   </g>
   <g id="patch_38">
    <path d="M 145.960445 285.162671 
L 138.55104 280.884849 
L 131.141635 285.162671 
L 131.141635 293.718315 
L 138.55104 297.996137 
L 145.960445 293.718315 
z
" clip-path="url(#p8153c52e14)" style="fill: #f4f4f4; stroke: #dfdfdf; stroke-width: 0.45; stroke-linejoin: miter"/>
   </g>
   <g id="patch_39">
    <path d="M 162.067847 257.263832 
L 154.658442 252.98601 
L 147.249037 257.263832 
L 147.249037 265.819476 
L 154.658442 270.097298 
L 162.067847 265.819476 
z
" clip-path="url(#p8153c52e14)" style="fill: #f4f4f4; stroke: #dfdfdf; stroke-width: 0.45; stroke-linejoin: miter"/>
   </g>
   <g id="patch_40">
    <path d="M 178.175249 229.364994 
L 170.765844 225.087172 
L 163.356439 229.364994 
L 163.356439 237.920637 
L 170.765844 242.198459 
L 178.175249 237.920637 
z
" clip-path="url(#p8153c52e14)" style="fill: #f4f4f4; stroke: #dfdfdf; stroke-width: 0.45; stroke-linejoin: miter"/>
   </g>
   <g id="patch_41">
    <path d="M 194.282651 201.466155 
L 186.873246 197.188333 
L 179.463841 201.466155 
L 179.463841 210.021799 
L 186.873246 214.299621 
L 194.282651 210.021799 
z
" clip-path="url(#p8153c52e14)" style="fill: #f4f4f4; stroke: #dfdfdf; stroke-width: 0.45; stroke-linejoin: miter"/>
   </g>
   <g id="patch_42">
    <path d="M 210.390053 173.567316 
L 202.980648 169.289494 
L 195.571243 173.567316 
L 195.571243 182.12296 
L 202.980648 186.400782 
L 210.390053 182.12296 
z
" clip-path="url(#p8153c52e14)" style="fill: #f4f4f4; stroke: #dfdfdf; stroke-width: 0.45; stroke-linejoin: miter"/>
   </g>
   <g id="patch_43">
    <path d="M 226.497455 145.668477 
L 219.08805 141.390656 
L 211.678645 145.668477 
L 211.678645 154.224121 
L 219.08805 158.501943 
L 226.497455 154.224121 
z
" clip-path="url(#p8153c52e14)" style="fill: #f4f4f4; stroke: #dfdfdf; stroke-width: 0.45; stroke-linejoin: miter"/>
   </g>
   <g id="patch_44">
    <path d="M 242.604857 117.769639 
L 235.195452 113.491817 
L 227.786047 117.769639 
L 227.786047 126.325283 
L 235.195452 130.603105 
L 242.604857 126.325283 
z
" clip-path="url(#p8153c52e14)" style="fill: #f4f4f4; stroke: #dfdfdf; stroke-width: 0.45; stroke-linejoin: miter"/>
   </g>
   <g id="patch_45">
    <path d="M 178.175249 285.162671 
L 170.765844 280.884849 
L 163.356439 285.162671 
L 163.356439 293.718315 
L 170.765844 297.996137 
L 178.175249 293.718315 
z
" clip-path="url(#p8153c52e14)" style="fill: #f4f4f4; stroke: #dfdfdf; stroke-width: 0.45; stroke-linejoin: miter"/>
   </g>
   <g id="patch_46">
    <path d="M 194.282651 257.263832 
L 186.873246 252.98601 
L 179.463841 257.263832 
L 179.463841 265.819476 
L 186.873246 270.097298 
L 194.282651 265.819476 
z
" clip-path="url(#p8153c52e14)" style="fill: #f4f4f4; stroke: #dfdfdf; stroke-width: 0.45; stroke-linejoin: miter"/>
   </g>
   <g id="patch_47">
    <path d="M 210.390053 229.364994 
L 202.980648 225.087172 
L 195.571243 229.364994 
L 195.571243 237.920637 
L 202.980648 242.198459 
L 210.390053 237.920637 
z
" clip-path="url(#p8153c52e14)" style="fill: #f4f4f4; stroke: #dfdfdf; stroke-width: 0.45; stroke-linejoin: miter"/>
   </g>
   <g id="patch_48">
    <path d="M 226.497455 201.466155 
L 219.08805 197.188333 
L 211.678645 201.466155 
L 211.678645 210.021799 
L 219.08805 214.299621 
L 226.497455 210.021799 
z
" clip-path="url(#p8153c52e14)" style="fill: #f4f4f4; stroke: #dfdfdf; stroke-width: 0.45; stroke-linejoin: miter"/>
   </g>
   <g id="patch_49">
    <path d="M 242.604857 173.567316 
L 235.195452 169.289494 
L 227.786047 173.567316 
L 227.786047 182.12296 
L 235.195452 186.400782 
L 242.604857 182.12296 
z
" clip-path="url(#p8153c52e14)" style="fill: #f4f4f4; stroke: #dfdfdf; stroke-width: 0.45; stroke-linejoin: miter"/>
   </g>
   <g id="patch_50">
    <path d="M 258.712259 145.668477 
L 251.302854 141.390656 
L 243.893449 145.668477 
L 243.893449 154.224121 
L 251.302854 158.501943 
L 258.712259 154.224121 
z
" clip-path="url(#p8153c52e14)" style="fill: #f4f4f4; stroke: #dfdfdf; stroke-width: 0.45; stroke-linejoin: miter"/>
   </g>
   <g id="patch_51">
    <path d="M 210.390053 285.162671 
L 202.980648 280.884849 
L 195.571243 285.162671 
L 195.571243 293.718315 
L 202.980648 297.996137 
L 210.390053 293.718315 
z
" clip-path="url(#p8153c52e14)" style="fill: #f4f4f4; stroke: #dfdfdf; stroke-width: 0.45; stroke-linejoin: miter"/>
   </g>
   <g id="patch_52">
    <path d="M 226.497455 257.263832 
L 219.08805 252.98601 
L 211.678645 257.263832 
L 211.678645 265.819476 
L 219.08805 270.097298 
L 226.497455 265.819476 
z
" clip-path="url(#p8153c52e14)" style="fill: #f4f4f4; stroke: #dfdfdf; stroke-width: 0.45; stroke-linejoin: miter"/>
   </g>
   <g id="patch_53">
    <path d="M 242.604857 229.364994 
L 235.195452 225.087172 
L 227.786047 229.364994 
L 227.786047 237.920637 
L 235.195452 242.198459 
L 242.604857 237.920637 
z
" clip-path="url(#p8153c52e14)" style="fill: #f4f4f4; stroke: #dfdfdf; stroke-width: 0.45; stroke-linejoin: miter"/>
   </g>
   <g id="patch_54">
    <path d="M 258.712259 201.466155 
L 251.302854 197.188333 
L 243.893449 201.466155 
L 243.893449 210.021799 
L 251.302854 214.299621 
L 258.712259 210.021799 
z
" clip-path="url(#p8153c52e14)" style="fill: #f4f4f4; stroke: #dfdfdf; stroke-width: 0.45; stroke-linejoin: miter"/>
   </g>
   <g id="patch_55">
    <path d="M 274.819661 173.567316 
L 267.410256 169.289494 
L 260.000851 173.567316 
L 260.000851 182.12296 
L 267.410256 186.400782 
L 274.819661 182.12296 
z
" clip-path="url(#p8153c52e14)" style="fill: #f4f4f4; stroke: #dfdfdf; stroke-width: 0.45; stroke-linejoin: miter"/>
   </g>
   <g id="patch_56">
    <path d="M 97.638239 145.668477 
L 90.228834 141.390656 
L 82.819429 145.668477 
L 82.819429 154.224121 
L 90.228834 158.501943 
L 97.638239 154.224121 
z
" clip-path="url(#p8153c52e14)" style="fill: #272727; stroke: #000000; stroke-width: 0.55; stroke-linejoin: miter"/>
   </g>
   <g id="patch_57">
    <path d="M 49.316033 285.162671 
L 41.906628 280.884849 
L 34.497223 285.162671 
L 34.497223 293.718315 
L 41.906628 297.996137 
L 49.316033 293.718315 
z
" clip-path="url(#p8153c52e14)" style="fill: #3775ba; stroke: #000000; stroke-width: 0.55; stroke-linejoin: miter"/>
   </g>
   <g id="patch_58">
    <path d="M 65.423435 257.263832 
L 58.01403 252.98601 
L 50.604625 257.263832 
L 50.604625 265.819476 
L 58.01403 270.097298 
L 65.423435 265.819476 
z
" clip-path="url(#p8153c52e14)" style="fill: #272727; stroke: #000000; stroke-width: 0.55; stroke-linejoin: miter"/>
   </g>
   <g id="patch_59">
    <path d="M 81.530837 229.364994 
L 74.121432 225.087172 
L 66.712027 229.364994 
L 66.712027 237.920637 
L 74.121432 242.198459 
L 81.530837 237.920637 
z
" clip-path="url(#p8153c52e14)" style="fill: #3775ba; stroke: #000000; stroke-width: 0.55; stroke-linejoin: miter"/>
   </g>
   <g id="patch_60">
    <path d="M 97.638239 201.466155 
L 90.228834 197.188333 
L 82.819429 201.466155 
L 82.819429 210.021799 
L 90.228834 214.299621 
L 97.638239 210.021799 
z
" clip-path="url(#p8153c52e14)" style="fill: #3775ba; stroke: #000000; stroke-width: 0.55; stroke-linejoin: miter"/>
   </g>
   <g id="patch_61">
    <path d="M 113.745641 173.567316 
L 106.336236 169.289494 
L 98.926831 173.567316 
L 98.926831 182.12296 
L 106.336236 186.400782 
L 113.745641 182.12296 
z
" clip-path="url(#p8153c52e14)" style="fill: #272727; stroke: #000000; stroke-width: 0.55; stroke-linejoin: miter"/>
   </g>
   <g id="patch_62">
    <path d="M 129.853043 145.668477 
L 122.443638 141.390656 
L 115.034233 145.668477 
L 115.034233 154.224121 
L 122.443638 158.501943 
L 129.853043 154.224121 
z
" clip-path="url(#p8153c52e14)" style="fill: #d8a102; stroke: #000000; stroke-width: 0.55; stroke-linejoin: miter"/>
   </g>
   <g id="patch_63">
    <path d="M 145.960445 117.769639 
L 138.55104 113.491817 
L 131.141635 117.769639 
L 131.141635 126.325283 
L 138.55104 130.603105 
L 145.960445 126.325283 
z
" clip-path="url(#p8153c52e14)" style="fill: #3775ba; stroke: #000000; stroke-width: 0.55; stroke-linejoin: miter"/>
   </g>
   <g id="patch_64">
    <path d="M 162.067847 89.8708 
L 154.658442 85.592978 
L 147.249037 89.8708 
L 147.249037 98.426444 
L 154.658442 102.704266 
L 162.067847 98.426444 
z
" clip-path="url(#p8153c52e14)" style="fill: #3775ba; stroke: #000000; stroke-width: 0.55; stroke-linejoin: miter"/>
   </g>
   <g id="patch_65">
    <path d="M 178.175249 61.971961 
L 170.765844 57.694139 
L 163.356439 61.971961 
L 163.356439 70.527605 
L 170.765844 74.805427 
L 178.175249 70.527605 
z
" clip-path="url(#p8153c52e14)" style="fill: #272727; stroke: #000000; stroke-width: 0.55; stroke-linejoin: miter"/>
   </g>
   <g id="patch_66">
    <path d="M 194.282651 34.073123 
L 186.873246 29.795301 
L 179.463841 34.073123 
L 179.463841 42.628766 
L 186.873246 46.906588 
L 194.282651 42.628766 
z
" clip-path="url(#p8153c52e14)" style="fill: #3775ba; stroke: #000000; stroke-width: 0.55; stroke-linejoin: miter"/>
   </g>
   <g id="patch_67">
    <path d="M 97.638239 257.263832 
L 90.228834 252.98601 
L 82.819429 257.263832 
L 82.819429 265.819476 
L 90.228834 270.097298 
L 97.638239 265.819476 
z
" clip-path="url(#p8153c52e14)" style="fill: #272727; stroke: #000000; stroke-width: 0.55; stroke-linejoin: miter"/>
   </g>
   <g id="patch_68">
    <path d="M 145.960445 173.567316 
L 138.55104 169.289494 
L 131.141635 173.567316 
L 131.141635 182.12296 
L 138.55104 186.400782 
L 145.960445 182.12296 
z
" clip-path="url(#p8153c52e14)" style="fill: #272727; stroke: #000000; stroke-width: 0.55; stroke-linejoin: miter"/>
   </g>
   <g id="patch_69">
    <path d="M 162.067847 145.668477 
L 154.658442 141.390656 
L 147.249037 145.668477 
L 147.249037 154.224121 
L 154.658442 158.501943 
L 162.067847 154.224121 
z
" clip-path="url(#p8153c52e14)" style="fill: #3775ba; stroke: #000000; stroke-width: 0.55; stroke-linejoin: miter"/>
   </g>
   <g id="patch_70">
    <path d="M 129.853043 257.263832 
L 122.443638 252.98601 
L 115.034233 257.263832 
L 115.034233 265.819476 
L 122.443638 270.097298 
L 129.853043 265.819476 
z
" clip-path="url(#p8153c52e14)" style="fill: #3775ba; stroke: #000000; stroke-width: 0.55; stroke-linejoin: miter"/>
   </g>
   <g id="patch_71">
    <path d="M 162.067847 201.466155 
L 154.658442 197.188333 
L 147.249037 201.466155 
L 147.249037 210.021799 
L 154.658442 214.299621 
L 162.067847 210.021799 
z
" clip-path="url(#p8153c52e14)" style="fill: #3775ba; stroke: #000000; stroke-width: 0.55; stroke-linejoin: miter"/>
   </g>
   <g id="patch_72">
    <path d="M 178.175249 173.567316 
L 170.765844 169.289494 
L 163.356439 173.567316 
L 163.356439 182.12296 
L 170.765844 186.400782 
L 178.175249 182.12296 
z
" clip-path="url(#p8153c52e14)" style="fill: #3775ba; stroke: #000000; stroke-width: 0.55; stroke-linejoin: miter"/>
   </g>
   <g id="patch_73">
    <path d="M 194.282651 145.668477 
L 186.873246 141.390656 
L 179.463841 145.668477 
L 179.463841 154.224121 
L 186.873246 158.501943 
L 194.282651 154.224121 
z
" clip-path="url(#p8153c52e14)" style="fill: #3775ba; stroke: #000000; stroke-width: 0.55; stroke-linejoin: miter"/>
   </g>
   <g id="patch_74">
    <path d="M 162.067847 257.263832 
L 154.658442 252.98601 
L 147.249037 257.263832 
L 147.249037 265.819476 
L 154.658442 270.097298 
L 162.067847 265.819476 
z
" clip-path="url(#p8153c52e14)" style="fill: #3775ba; stroke: #000000; stroke-width: 0.55; stroke-linejoin: miter"/>
   </g>
   <g id="patch_75">
    <path d="M 178.175249 229.364994 
L 170.765844 225.087172 
L 163.356439 229.364994 
L 163.356439 237.920637 
L 170.765844 242.198459 
L 178.175249 237.920637 
z
" clip-path="url(#p8153c52e14)" style="fill: #3775ba; stroke: #000000; stroke-width: 0.55; stroke-linejoin: miter"/>
   </g>
   <g id="patch_76">
    <path d="M 210.390053 173.567316 
L 202.980648 169.289494 
L 195.571243 173.567316 
L 195.571243 182.12296 
L 202.980648 186.400782 
L 210.390053 182.12296 
z
" clip-path="url(#p8153c52e14)" style="fill: #272727; stroke: #000000; stroke-width: 0.55; stroke-linejoin: miter"/>
   </g>
   <g id="patch_77">
    <path d="M 226.497455 145.668477 
L 219.08805 141.390656 
L 211.678645 145.668477 
L 211.678645 154.224121 
L 219.08805 158.501943 
L 226.497455 154.224121 
z
" clip-path="url(#p8153c52e14)" style="fill: #272727; stroke: #000000; stroke-width: 0.55; stroke-linejoin: miter"/>
   </g>
   <g id="patch_78">
    <path d="M 194.282651 257.263832 
L 186.873246 252.98601 
L 179.463841 257.263832 
L 179.463841 265.819476 
L 186.873246 270.097298 
L 194.282651 265.819476 
z
" clip-path="url(#p8153c52e14)" style="fill: #d8a102; stroke: #000000; stroke-width: 0.55; stroke-linejoin: miter"/>
   </g>
   <g id="patch_79">
    <path d="M 242.604857 173.567316 
L 235.195452 169.289494 
L 227.786047 173.567316 
L 227.786047 182.12296 
L 235.195452 186.400782 
L 242.604857 182.12296 
z
" clip-path="url(#p8153c52e14)" style="fill: #3775ba; stroke: #000000; stroke-width: 0.55; stroke-linejoin: miter"/>
   </g>
   <g id="patch_80">
    <path d="M 258.712259 145.668477 
L 251.302854 141.390656 
L 243.893449 145.668477 
L 243.893449 154.224121 
L 251.302854 158.501943 
L 258.712259 154.224121 
z
" clip-path="url(#p8153c52e14)" style="fill: #3775ba; stroke: #000000; stroke-width: 0.55; stroke-linejoin: miter"/>
   </g>
   <g id="patch_81">
    <path d="M 210.390053 285.162671 
L 202.980648 280.884849 
L 195.571243 285.162671 
L 195.571243 293.718315 
L 202.980648 297.996137 
L 210.390053 293.718315 
z
" clip-path="url(#p8153c52e14)" style="fill: #3775ba; stroke: #000000; stroke-width: 0.55; stroke-linejoin: miter"/>
   </g>
   <g id="patch_82">
    <path d="M 226.497455 257.263832 
L 219.08805 252.98601 
L 211.678645 257.263832 
L 211.678645 265.819476 
L 219.08805 270.097298 
L 226.497455 265.819476 
z
" clip-path="url(#p8153c52e14)" style="fill: #3775ba; stroke: #000000; stroke-width: 0.55; stroke-linejoin: miter"/>
   </g>
   <g id="patch_83">
    <path d="M 274.819661 173.567316 
L 267.410256 169.289494 
L 260.000851 173.567316 
L 260.000851 182.12296 
L 267.410256 186.400782 
L 274.819661 182.12296 
z
" clip-path="url(#p8153c52e14)" style="fill: #3775ba; stroke: #000000; stroke-width: 0.55; stroke-linejoin: miter"/>
   </g>
   <g id="text_1">
    <text style="font-size: 7px; font-family: 'Arial', 'DejaVu Sans', 'Liberation Sans', sans-serif; text-anchor: start; fill: #4d4d4d" x="12.77619" y="300.800677" transform="rotate(-0 12.77619 300.800677)">black attacker, gold move, blue obligation, pale cells are convex hull voids</text>
   </g>
   <g id="text_2">
    <text style="font-size: 9px; font-family: 'Arial', 'DejaVu Sans', 'Liberation Sans', sans-serif; text-anchor: middle" x="146.604741" y="13.751719" transform="rotate(-0 146.604741 13.751719)">Annulus spotlight: T_0150 | tau=6 | deficit=26</text>
   </g>
  </g>
 </g>
 <defs>
  <clipPath id="p8153c52e14">
   <rect x="7.2" y="19.751719" width="278.809482" height="288.288"/>
  </clipPath>
 </defs>
</svg>
